<svg width="302.000000" height="303.000000" viewBox="0 0 302 303" fill="none" xmlns="http://www.w3.org/2000/svg" xmlns:xlink="http://www.w3.org/1999/xlink">
	<desc>
			Created with Pixso.
	</desc>
	<defs>
		<clipPath id="clip11_5">
			<rect id="画板 3" width="302.000000" height="303.000000" fill="white" fill-opacity="0"/>
		</clipPath>
	</defs>
	<rect id="画板 3" width="302.000000" height="303.000000" fill="#EFEFEF" fill-opacity="0"/>
	<g clip-path="url(#clip11_5)">
		<ellipse id="椭圆 2" cx="151.500000" cy="151.500000" rx="145.500000" ry="146.500000" fill="#EFEFEF" fill-opacity="0"/>
		<ellipse id="椭圆 2" cx="151.500000" cy="151.500000" rx="138.000000" ry="139.000000" stroke="#4285F4" stroke-opacity="1.000000" stroke-width="15.000000"/>
		<path id="多边形 2" d="M235.3 70.17L138.91 140.81L164.62 166.54L235.3 70.17Z" fill="#FE0000" fill-opacity="1.000000" fill-rule="evenodd"/>
		<path id="多边形 2" d="M68.81 236.41L165.15 165.72L139.42 140.01L68.81 236.41Z" fill="#34A853" fill-opacity="1.000000" fill-rule="evenodd"/>
		<path id="S" d="M147.4 271.35Q149.6 272.25 152.37 272.25Q155.22 272.25 157.3 271.2Q159.17 270.27 160.24 268.77Q160.37 268.59 160.49 268.4Q160.9 267.74 161.16 267.03Q161.59 265.83 161.59 264.47Q161.59 262.27 160.53 260.85Q160.5 260.8 160.47 260.76Q159.55 259.58 158.36 258.85Q158.1 258.7 157.83 258.57Q156.3 257.81 153.85 256.98Q151.4 256.19 150.25 255.51Q149.57 255.1 149.29 254.5Q149.1 254.1 149.1 253.6Q149.1 252.71 149.53 252.15Q149.64 252.01 149.78 251.89Q149.85 251.83 149.94 251.77Q150.59 251.3 151.58 251.3Q152.69 251.3 153.46 251.81Q153.59 251.9 153.7 252Q153.96 252.22 154.14 252.48Q154.55 253.08 154.6 253.93L161.26 253.93Q161.15 251.65 160.07 250.01Q159.46 249.08 158.53 248.36Q155.97 246.37 151.8 246.37Q147.71 246.37 145.15 248.35Q145.14 248.35 145.14 248.36Q144.14 249.14 143.53 250.15Q142.58 251.73 142.58 253.89Q142.58 256.26 143.69 257.74Q144.62 258.96 145.84 259.69Q146.09 259.84 146.36 259.97Q147.9 260.73 150.36 261.48Q152.04 261.98 152.96 262.38Q153.88 262.78 154.51 263.39Q154.77 263.64 154.93 263.95Q155.14 264.39 155.14 264.94Q155.14 265.64 154.83 266.15Q154.65 266.45 154.35 266.69Q153.56 267.32 152.19 267.32Q151.06 267.32 150.3 266.79Q150.16 266.7 150.03 266.58Q149.96 266.52 149.9 266.46Q149.19 265.73 149.06 264.44L142.51 264.44Q142.56 266.47 143.46 268.03Q143.65 268.37 143.89 268.68Q144.2 269.1 144.57 269.48Q145.73 270.67 147.4 271.35Z" fill="#000000" fill-opacity="1.000000" fill-rule="evenodd"/>
		<path id="N" d="M156.68 58L162.83 58L162.83 32.73L156.68 32.73L156.68 48.38L146.38 32.73L140.23 32.73L140.23 58L146.38 58L146.38 42.4L156.68 58Z" fill="#000000" fill-opacity="1.000000" fill-rule="evenodd"/>
		<path id="W" d="M62.41 162L69.01 136.73L62.38 136.73L58.71 155.12L54.39 136.73L47.62 136.73L43.12 155.12L39.48 136.73L32.89 136.73L39.3 162L46.75 162L50.93 145.37L54.96 162L62.41 162Z" fill="#000000" fill-opacity="1.000000" fill-rule="evenodd"/>
		<path id="E" d="M255.38 146.76L255.38 141.66L264.71 141.66L264.71 136.73L249.23 136.73L249.23 162L264.71 162L264.71 157.06L255.38 157.06L255.38 151.52L263.62 151.52L263.62 146.76L255.38 146.76Z" fill="#000000" fill-opacity="1.000000" fill-rule="evenodd"/>
	</g>
</svg>
