<svg width="417.000000" height="417.000000" viewBox="0 0 417 417" fill="none" xmlns="http://www.w3.org/2000/svg" xmlns:xlink="http://www.w3.org/1999/xlink">
	<desc>
			Created with Pixso.
	</desc>
	<defs>
		<clipPath id="clip13_11">
			<rect id="画板 4" width="417.000000" height="417.000000" fill="white" fill-opacity="0"/>
		</clipPath>
	</defs>
	<rect id="画板 4" width="417.000000" height="417.000000" fill="#EFEFEF" fill-opacity="0"/>
	<g clip-path="url(#clip13_11)">
		<path id="多边形 3" d="M78.78 95.61L6.58 138.86C-0.74 143.25 0.44 154.19 8.52 156.92L72.6 178.52C73.52 178.84 74.49 179.01 75.47 179.04L185.67 182.66C191.32 182.84 196 178.31 196 172.66L196 111.32C196 106.07 191.93 101.71 186.69 101.35L84.61 94.21C82.57 94.07 80.54 94.56 78.78 95.61Z" fill="#34A853" fill-opacity="1.000000" fill-rule="evenodd"/>
		<rect id="矩形 1" x="196.000000" y="32.000000" width="18.000000" height="328.000000" fill="#4285F4" fill-opacity="1.000000"/>
		<rect id="矩形 2" x="155.000000" y="351.000000" width="100.000000" height="27.000000" fill="#4285F4" fill-opacity="1.000000"/>
		<path id="多边形 4" d="M356.17 136.29L222.86 147.98C217.7 148.43 213.74 152.75 213.74 157.94L213.74 216C213.74 221.52 218.21 226 223.74 226L355.81 226C358.19 226 360.49 225.15 362.3 223.61L410.09 182.86C415.24 178.47 414.63 170.34 408.89 166.77L362.33 137.76C360.49 136.62 358.33 136.1 356.17 136.29Z" fill="#34A853" fill-opacity="1.000000" fill-rule="evenodd"/>
		<path id="多边形 3" d="M76.25 208.22L12.24 243.28C4.98 247.26 5.42 257.84 12.99 261.19L71.56 287.14C72.84 287.7 74.22 288 75.61 288L186 288C191.52 288 196 283.52 196 278L196 217C196 211.47 191.52 207 186 207L81.05 207C79.37 207 77.72 207.42 76.25 208.22Z" fill="#34A853" fill-opacity="1.000000" fill-rule="evenodd"/>
		<path id="A" d="M118.85 146.79L131.95 146.79L134.05 153L143.09 153L130.4 117.9L120.5 117.9L107.8 153L116.75 153L118.85 146.79ZM125.39 127.35L129.75 140.19L121.09 140.19L125.39 127.35Z" fill="#FFFFFF" fill-opacity="1.000000" fill-rule="evenodd"/>
		<path id="B" d="M311.47 183.32Q310.11 182.37 308.35 181.99Q310.22 181.44 311.58 180.28Q312.17 179.77 312.67 179.15Q312.88 178.88 313.06 178.6Q314.29 176.69 314.29 173.99Q314.29 171.47 313.2 169.57Q312.47 168.32 311.27 167.35Q308.25 164.9 302.89 164.9L287.1 164.9L287.1 200L303.44 200Q308.95 200 312.02 197.42Q313.17 196.46 313.89 195.24Q315.1 193.2 315.1 190.45Q315.1 188.82 314.57 187.39Q314.11 186.13 313.24 185.03Q312.46 184.02 311.47 183.32ZM301.24 179.1L295.64 179.1L295.64 171.75L301.24 171.75Q303.34 171.75 304.47 172.7Q304.72 172.91 304.91 173.16Q305.59 174.04 305.59 175.45Q305.59 176.83 304.92 177.7Q304.72 177.96 304.47 178.17Q303.34 179.1 301.24 179.1ZM305.27 192.12Q304.1 193.1 301.94 193.1L295.64 193.1L295.64 185.35L301.84 185.35Q303.99 185.35 305.21 186.4Q305.6 186.73 305.87 187.15Q306.44 188.04 306.44 189.29Q306.44 190.7 305.77 191.6Q305.55 191.89 305.27 192.12Z" fill="#FFFFFF" fill-opacity="1.000000" fill-rule="evenodd"/>
		<path id="C" d="M108.59 238.69Q106.64 242.55 106.64 247.39Q106.64 252.27 108.62 256.14Q108.75 256.39 108.89 256.65Q110.06 258.75 111.71 260.37Q113.23 261.88 115.16 262.97Q115.69 263.27 116.24 263.53Q119.86 265.24 124.29 265.24Q129.35 265.24 133.22 263.1Q134.14 262.59 134.99 261.97Q136.58 260.8 137.79 259.33Q139.98 256.66 140.95 253L131.55 253Q130.78 254.61 129.53 255.66Q129.08 256.04 128.57 256.35Q128.22 256.56 127.86 256.73Q126.21 257.5 124.2 257.5Q121.8 257.5 119.95 256.49Q118.76 255.84 117.79 254.75Q117.56 254.5 117.35 254.22Q115.35 251.56 115.35 247.39Q115.35 243.21 117.36 240.56Q117.56 240.3 117.79 240.04Q118.76 238.96 119.95 238.31Q121.8 237.3 124.2 237.3Q126.21 237.3 127.86 238.07Q128.22 238.24 128.57 238.45Q129.07 238.75 129.52 239.12Q130.77 240.17 131.55 241.79L140.95 241.79Q139.99 238.18 137.85 235.53Q136.62 234.01 134.99 232.81Q134.08 232.13 133.09 231.59Q129.26 229.5 124.29 229.5Q119.9 229.5 116.3 231.19Q115.72 231.46 115.16 231.78Q113.29 232.84 111.81 234.29Q110.1 235.95 108.89 238.13Q108.74 238.4 108.59 238.69Z" fill="#FFFFFF" fill-opacity="1.000000" fill-rule="evenodd"/>
	</g>
</svg>
