<svg width="429.602661" height="69.023438" viewBox="0 0 429.603 69.0234" fill="none" xmlns="http://www.w3.org/2000/svg" xmlns:xlink="http://www.w3.org/1999/xlink">
	<desc>
			Created with Pixso.
	</desc>
	<defs/>
	<g opacity="0.950000">
		<path id="WWWTO" d="M382.76 66.92Q388.57 69.02 395.15 69.02Q401.76 69.02 407.59 66.88Q410.12 65.95 412.51 64.61Q416.07 62.61 418.96 59.9Q422.46 56.6 424.98 52.26Q426.03 50.46 426.84 48.56Q429.6 42.09 429.6 34.45Q429.6 26.55 426.68 19.93Q425.95 18.27 425.03 16.68Q422.7 12.66 419.5 9.54Q416.43 6.56 412.56 4.4Q410.03 3 407.35 2.04Q401.61 0 395.15 0Q388.57 0 382.76 2.1Q380.16 3.04 377.71 4.4Q374.03 6.45 371.05 9.25Q367.62 12.47 365.12 16.68Q364.1 18.42 363.3 20.27Q360.48 26.75 360.48 34.45Q360.48 42.03 363.21 48.45Q364.04 50.41 365.12 52.26Q367.67 56.59 371.2 59.88Q374.12 62.6 377.71 64.61Q380.16 65.97 382.76 66.92ZM355 14.1L355 0.96L302.88 0.96L302.88 14.1L320.74 14.1L320.74 68.34L337.17 68.34L337.17 14.1L355 14.1ZM404.41 51.69Q400.48 54.04 395.15 54.04Q389.54 54.04 385.5 51.53Q383.66 50.39 382.14 48.72Q381.55 48.08 381.04 47.39Q377.29 42.3 377.29 34.45Q377.29 26.33 381.21 21.24Q381.65 20.68 382.14 20.15Q383.61 18.55 385.39 17.43Q389.47 14.88 395.15 14.88Q400.55 14.88 404.51 17.27Q406.46 18.44 408.06 20.2Q408.63 20.83 409.14 21.51Q412.91 26.58 412.91 34.45Q412.91 42.05 409.32 47.1Q408.74 47.92 408.06 48.67Q406.42 50.49 404.41 51.69Z" fill="#34A853" fill-opacity="1.000000" fill-rule="evenodd"/>
		<path id="WWWTO" d="M78.72 68.34L96.3 0.96L78.63 0.96L68.83 50.01L57.32 0.96L39.28 0.96L27.28 50.01L17.57 0.96L0 0.96L17.08 68.34L36.96 68.34L48.09 24L58.85 68.34L78.72 68.34ZM179.71 68.34L197.29 0.96L179.62 0.96L169.82 50.01L158.32 0.96L140.27 0.96L128.27 50.01L118.57 0.96L100.99 0.96L118.07 68.34L137.95 68.34L149.08 24L159.84 68.34L179.71 68.34ZM280.71 68.34L298.28 0.96L280.61 0.96L270.82 50.01L259.31 0.96L241.26 0.96L229.26 50.01L219.56 0.96L201.98 0.96L219.07 68.34L238.94 68.34L250.07 24L260.83 68.34L280.71 68.34Z" fill="#4285F4" fill-opacity="1.000000" fill-rule="evenodd"/>
	</g>
</svg>
