<svg width="385.671875" height="72.234375" viewBox="0 0 385.672 72.2344" fill="none" xmlns="http://www.w3.org/2000/svg" xmlns:xlink="http://www.w3.org/1999/xlink">
	<desc>
			Created with Pixso.
	</desc>
	<defs/>
	<path id="wwwTo" d="M295.82 58.21L288.46 58.21L288.46 71.06L318.89 71.06L318.89 58.21L311.39 58.21L311.39 12.42L321.18 12.42L321.18 21.6L336.56 21.6L336.56 0L271.92 0L271.92 21.6L287.2 21.6L287.2 12.42L295.82 12.42L295.82 58.21ZM335.38 38.13Q334.01 42.12 334.01 46.59Q334.01 51.58 335.63 55.97Q335.74 56.29 335.86 56.6Q337.22 60.02 339.4 62.8Q340.19 63.81 341.09 64.73Q341.4 65.05 341.73 65.36Q344.91 68.39 349.22 70.21Q353.98 72.23 359.84 72.23Q365.65 72.23 370.41 70.21Q374.53 68.47 377.64 65.61Q378.11 65.17 378.57 64.71Q379.62 63.63 380.52 62.43Q382.54 59.77 383.82 56.55Q384.05 55.97 384.25 55.38Q385.67 51.23 385.67 46.59Q385.67 42.03 384.26 37.95Q384.03 37.29 383.77 36.65Q382.46 33.45 380.43 30.81Q379.51 29.62 378.45 28.54Q378.04 28.12 377.61 27.73Q374.45 24.83 370.27 23.06Q365.51 21.04 359.84 21.04Q354.17 21.04 349.43 23.06Q345.38 24.78 342.28 27.58Q341.77 28.04 341.28 28.54Q340.27 29.56 339.39 30.69Q337.29 33.38 335.93 36.65Q335.63 37.38 335.38 38.13ZM348.96 51.67Q348.03 49.35 348.03 46.59Q348.03 43.68 348.96 41.34Q349.9 39 351.52 37.35Q352.33 36.53 353.28 35.9Q354.21 35.28 355.27 34.85Q355.6 34.71 355.93 34.6Q357.78 33.99 359.84 34.03Q362.21 33.98 364.27 34.77Q364.36 34.81 364.46 34.85Q365.69 35.35 366.74 36.11Q367.5 36.66 368.16 37.35Q369.73 39 370.62 41.34Q371.51 43.68 371.51 46.59Q371.51 49.4 370.62 51.72Q369.73 54.04 368.16 55.73Q367.44 56.51 366.59 57.12Q365.61 57.84 364.46 58.33Q364.27 58.41 364.07 58.49Q362.1 59.25 359.84 59.25Q357.98 59.25 356.29 58.7Q355.77 58.53 355.27 58.31Q354.25 57.86 353.34 57.24Q352.36 56.56 351.52 55.68Q351.46 55.62 351.4 55.56Q349.87 53.91 348.96 51.67Z" fill="#34A853" fill-opacity="1.000000" fill-rule="evenodd"/>
	<path id="wwwTo" d="M25.35 22.5L0 22.5L0 35.34L5.43 35.34L17.48 71.25L31.12 71.25L41.48 40.26L51.65 71.25L65.67 71.25L78.65 35.34L85.17 35.34L85.17 22.5L59.81 22.5L59.81 35.34L65.01 35.34L58.82 54.18L48.75 22.5L35.01 22.5L25.03 52.64L19.87 35.34L25.35 35.34L25.35 22.5ZM116.32 22.5L90.96 22.5L90.96 35.34L96.4 35.34L108.45 71.25L122.09 71.25L132.45 40.26L142.62 71.25L156.64 71.25L169.62 35.34L176.14 35.34L176.14 22.5L150.78 22.5L150.78 35.34L155.98 35.34L149.79 54.18L139.71 22.5L125.98 22.5L116 52.64L110.84 35.34L116.32 35.34L116.32 22.5ZM207.29 22.5L181.93 22.5L181.93 35.34L187.37 35.34L199.42 71.25L213.06 71.25L223.42 40.26L233.59 71.25L247.6 71.25L260.59 35.34L267.1 35.34L267.1 22.5L241.75 22.5L241.75 35.34L246.95 35.34L240.76 54.18L230.68 22.5L216.95 22.5L206.96 52.64L201.81 35.34L207.29 35.34L207.29 22.5Z" fill="#4285F4" fill-opacity="1.000000" fill-rule="evenodd"/>
</svg>
