<svg width="357.515625" height="68.296875" viewBox="0 0 357.516 68.2969" fill="none" xmlns="http://www.w3.org/2000/svg" xmlns:xlink="http://www.w3.org/1999/xlink">
	<desc>
			Created with Pixso.
	</desc>
	<defs/>
	<g opacity="0.950000">
		<path id="wwwto" d="M296.76 18.56L287.06 18.56L287.15 0L272.57 6.93L272.48 18.56L265.45 18.56L265.45 30.84L272.43 30.84L272.29 52.35Q272.25 56.34 273.42 59.34Q274.59 62.34 276.56 64.33Q277.62 65.4 278.86 66.18Q279.93 66.85 281.13 67.31Q281.88 67.59 282.65 67.79Q284.55 68.29 286.59 68.29Q290.62 68.29 293.55 67.4Q296.48 66.51 298.87 65.01L296.85 55.96Q295.5 56.43 294.14 56.78Q292.78 57.14 291 57.14Q290.01 57.14 289.26 56.9Q289.06 56.84 288.88 56.75Q288.37 56.49 287.97 56.01Q287.43 55.35 287.15 54.25Q286.87 53.15 286.87 51.37L286.96 30.84L296.76 30.84L296.76 18.56ZM307.22 34.19Q305.85 38.19 305.85 42.65Q305.85 47.64 307.47 52.04Q307.58 52.35 307.71 52.66Q309.07 56.09 311.25 58.87Q312.04 59.87 312.93 60.79Q313.25 61.11 313.57 61.42Q316.75 64.45 321.07 66.28Q325.82 68.29 331.68 68.29Q337.5 68.29 342.25 66.28Q346.38 64.53 349.48 61.67Q349.96 61.23 350.41 60.77Q351.46 59.69 352.36 58.5Q354.38 55.83 355.66 52.61Q355.89 52.03 356.09 51.44Q357.51 47.29 357.51 42.65Q357.51 38.09 356.1 34.01Q355.88 33.36 355.61 32.71Q354.3 29.52 352.27 26.87Q351.36 25.68 350.29 24.6Q349.88 24.19 349.45 23.79Q346.3 20.89 342.11 19.12Q337.35 17.1 331.68 17.1Q326.01 17.1 321.28 19.12Q317.22 20.85 314.13 23.64Q313.61 24.11 313.12 24.6Q312.11 25.63 311.23 26.75Q309.13 29.44 307.78 32.71Q307.47 33.44 307.22 34.19ZM320.81 47.74Q319.87 45.42 319.87 42.65Q319.87 39.75 320.81 37.4Q321.75 35.06 323.36 33.42Q324.18 32.59 325.12 31.96Q326.05 31.34 327.11 30.91Q327.44 30.78 327.78 30.66Q329.62 30.05 331.68 30.09Q334.06 30.04 336.11 30.83Q336.2 30.87 336.3 30.91Q337.53 31.41 338.58 32.17Q339.34 32.73 340 33.42Q341.57 35.06 342.46 37.4Q343.35 39.75 343.35 42.65Q343.35 45.46 342.46 47.78Q341.57 50.1 340 51.79Q339.28 52.57 338.43 53.18Q337.45 53.9 336.3 54.39Q336.11 54.48 335.92 54.55Q333.95 55.31 331.68 55.31Q329.82 55.31 328.14 54.76Q327.62 54.59 327.11 54.37Q326.09 53.92 325.19 53.3Q324.21 52.62 323.36 51.75Q323.3 51.68 323.25 51.62Q321.71 49.97 320.81 47.74Z" fill="#34A853" fill-opacity="1.000000" fill-rule="evenodd"/>
		<path id="wwwto" d="M25.35 18.56L0 18.56L0 31.4L5.43 31.4L17.48 67.31L31.12 67.31L41.48 36.32L51.65 67.31L65.67 67.31L78.65 31.4L85.17 31.4L85.17 18.56L59.81 18.56L59.81 31.4L65.01 31.4L58.82 50.25L48.75 18.56L35.01 18.56L25.03 48.7L19.87 31.4L25.35 31.4L25.35 18.56ZM114.32 18.56L88.96 18.56L88.96 31.4L94.4 31.4L106.45 67.31L120.09 67.31L130.45 36.32L140.62 67.31L154.64 67.31L167.62 31.4L174.14 31.4L174.14 18.56L148.78 18.56L148.78 31.4L153.98 31.4L147.79 50.25L137.71 18.56L123.98 18.56L114 48.7L108.84 31.4L114.32 31.4L114.32 18.56ZM203.29 18.56L177.93 18.56L177.93 31.4L183.37 31.4L195.42 67.31L209.06 67.31L219.42 36.32L229.59 67.31L243.6 67.31L256.59 31.4L263.1 31.4L263.1 18.56L237.75 18.56L237.75 31.4L242.95 31.4L236.76 50.25L226.68 18.56L212.95 18.56L202.96 48.7L197.81 31.4L203.29 31.4L203.29 18.56Z" fill="#4285F4" fill-opacity="1.000000" fill-rule="evenodd"/>
	</g>
</svg>
