<svg width="364.000000" height="72.000000" viewBox="0 0 364 72" fill="none" xmlns="http://www.w3.org/2000/svg" xmlns:xlink="http://www.w3.org/1999/xlink">
	<desc>
			Created with Pixso.
	</desc>
	<defs>
		<clipPath id="clip22_4">
			<rect id="画板 6" width="364.000000" height="72.000000" fill="white" fill-opacity="0"/>
		</clipPath>
	</defs>
	<rect id="画板 6" width="364.000000" height="72.000000" fill="#EFEFEF" fill-opacity="0"/>
	<g clip-path="url(#clip22_4)">
		<path id="wwwt" d="M304.68 20.43L294.98 20.43L295.07 1.87L280.5 8.81L280.4 20.43L273.37 20.43L273.37 32.71L280.35 32.71L280.21 54.23Q280.17 58.21 281.34 61.21Q282.51 64.21 284.48 66.21Q285.54 67.28 286.78 68.06Q287.85 68.73 289.05 69.18Q289.8 69.47 290.57 69.67Q292.48 70.17 294.51 70.17Q298.54 70.17 301.47 69.28Q304.4 68.39 306.79 66.89L304.78 57.84Q303.42 58.31 302.06 58.66Q300.7 59.01 298.92 59.01Q297.93 59.01 297.18 58.78Q296.98 58.71 296.8 58.62Q296.29 58.37 295.89 57.89Q295.35 57.23 295.07 56.13Q294.79 55.03 294.79 53.25L294.89 32.71L304.68 32.71L304.68 20.43Z" fill="#34A853" fill-opacity="1.000000" fill-rule="evenodd"/>
		<path id="wwwt" d="M27.28 20.43L1.92 20.43L1.92 33.28L7.35 33.28L19.4 69.18L33.04 69.18L43.4 38.2L53.57 69.18L67.59 69.18L80.57 33.28L87.09 33.28L87.09 20.43L61.73 20.43L61.73 33.28L66.93 33.28L60.75 52.12L50.67 20.43L36.93 20.43L26.95 50.57L21.79 33.28L27.28 33.28L27.28 20.43ZM118.25 20.43L92.89 20.43L92.89 33.28L98.32 33.28L110.37 69.18L124.01 69.18L134.37 38.2L144.54 69.18L158.56 69.18L171.54 33.28L178.06 33.28L178.06 20.43L152.7 20.43L152.7 33.28L157.9 33.28L151.71 52.12L141.64 20.43L127.9 20.43L117.92 50.57L112.76 33.28L118.25 33.28L118.25 20.43ZM209.21 20.43L183.85 20.43L183.85 33.28L189.29 33.28L201.34 69.18L214.98 69.18L225.34 38.2L235.51 69.18L249.53 69.18L262.51 33.28L269.03 33.28L269.03 20.43L243.67 20.43L243.67 33.28L248.87 33.28L242.68 52.12L232.6 20.43L218.87 20.43L208.89 50.57L203.73 33.28L209.21 33.28L209.21 20.43Z" fill="#4285F4" fill-opacity="1.000000" fill-rule="evenodd"/>
		<path id="o" d="M310.74 36.06Q309.37 40.06 309.37 44.53Q309.37 49.52 310.98 53.91Q311.1 54.22 311.22 54.53Q312.58 57.96 314.76 60.74Q315.55 61.75 316.45 62.67Q316.76 62.99 317.09 63.3Q320.26 66.32 324.58 68.15Q329.34 70.17 335.2 70.17Q341.01 70.17 345.77 68.15Q349.89 66.4 353 63.55Q353.47 63.11 353.93 62.64Q354.98 61.56 355.88 60.37Q357.9 57.71 359.18 54.49Q359.41 53.91 359.61 53.32Q361.03 49.16 361.03 44.53Q361.03 39.96 359.62 35.89Q359.39 35.23 359.13 34.59Q357.82 31.39 355.79 28.75Q354.87 27.56 353.81 26.48Q353.4 26.06 352.96 25.67Q349.81 22.77 345.63 21Q340.87 18.98 335.2 18.98Q329.53 18.98 324.79 21Q320.74 22.72 317.64 25.52Q317.13 25.98 316.64 26.48Q315.63 27.5 314.75 28.63Q312.65 31.32 311.29 34.59Q310.99 35.32 310.74 36.06ZM324.32 49.61Q323.39 47.29 323.39 44.53Q323.39 41.62 324.32 39.28Q325.26 36.93 326.88 35.29Q327.69 34.47 328.64 33.84Q329.57 33.21 330.63 32.78Q330.96 32.65 331.29 32.54Q333.14 31.92 335.2 31.96Q337.57 31.92 339.62 32.71Q339.72 32.75 339.82 32.78Q341.05 33.29 342.09 34.05Q342.86 34.6 343.52 35.29Q345.09 36.93 345.98 39.28Q346.87 41.62 346.87 44.53Q346.87 47.34 345.98 49.66Q345.09 51.98 343.52 53.67Q342.79 54.45 341.95 55.06Q340.96 55.78 339.82 56.27Q339.63 56.35 339.43 56.42Q337.46 57.18 335.2 57.18Q333.34 57.18 331.65 56.63Q331.13 56.47 330.63 56.25Q329.61 55.8 328.7 55.18Q327.72 54.5 326.88 53.62Q326.82 53.56 326.76 53.5Q325.23 51.85 324.32 49.61Z" fill="#34A853" fill-opacity="1.000000" fill-rule="evenodd"/>
	</g>
</svg>
